<svg width="62" height="60" viewBox="0 0 62 60" fill="none" xmlns="http://www.w3.org/2000/svg">
<mask id="mask0_847_389" style="mask-type:alpha" maskUnits="userSpaceOnUse" x="0" y="0" width="62" height="60">
<path d="M31 60C48.1208 60 62 46.5685 62 30C62 13.4315 48.1208 0 31 0C13.8792 0 0 13.4315 0 30C0 46.5685 13.8792 60 31 60Z" fill="#D9D9D9"/>
</mask>
<g mask="url(#mask0_847_389)">
<path fill-rule="evenodd" clip-rule="evenodd" d="M23.8546 0.675638C6.78767 4.96294 -3.57864 22.2005 1.14236 38.4417C3.188 45.4775 10.1141 53.4965 17.413 57.279C21.81 59.5572 23.9186 59.9726 31.2347 59.9991C38.239 60.0234 40.7621 59.5877 44.6055 57.6914C49.4139 55.3176 58.6131 47.8908 55.3629 49.005C53.9551 49.4885 52.9902 48.2747 50.6693 43.1028C46.0742 32.8604 45.9838 32.2743 48.5729 29.5177C50.843 27.1013 50.847 27.0515 48.9223 24.7794C47.8537 23.5169 46.4216 22.1264 45.74 21.6896C44.9752 21.198 44.7325 19.7455 45.1052 17.8807C45.6232 15.2947 45.4018 14.8661 43.5502 14.8661C42.0906 14.8661 41.3918 15.505 41.3918 16.8376C41.3918 17.9223 40.95 19.0823 40.4106 19.4154C39.3045 20.099 33.2661 12.2618 33.2661 10.143C33.2661 9.38838 32.8091 8.77184 32.2504 8.77184C31.6918 8.77184 31.2347 9.57628 31.2347 10.5585C31.2347 11.5417 30.2922 12.9342 29.1403 13.6543C27.4157 14.731 27.1171 15.7579 27.4492 19.4703C27.7773 23.1411 27.6005 23.7688 26.4965 22.8526C25.4066 21.9476 25.1405 22.4798 25.1405 25.5645C25.1405 30.2612 21.0238 36.1807 17.7248 36.2284C15.542 36.2599 15.536 36.2945 17.4628 37.752C18.5475 38.5717 20.2041 39.2431 21.1447 39.2431C22.2477 39.2431 23.0806 40.3705 23.49 42.4172C24.3655 46.7969 24.333 47.0153 22.5291 48.8202C21.1305 50.2178 21.1234 50.4158 22.4692 50.4158C23.3132 50.4158 24.3746 49.845 24.8266 49.1462C25.6676 47.8471 25.7458 47.3352 26.0059 41.4045C26.1369 38.4163 26.3593 38.1471 27.7468 39.2989C29.2683 40.5615 32.2504 45.575 32.2504 46.87C32.2504 47.2103 31.7934 47.2062 31.2347 46.8609C30.6588 46.5044 30.219 47.3586 30.219 48.8324C30.219 51.7017 32.2291 52.5011 32.286 49.6541C32.3144 48.2686 32.6191 48.4108 33.6653 50.299C34.4037 51.6316 35.2712 52.2949 35.5941 51.7738C35.9161 51.2528 35.8267 50.2574 35.3971 49.5606C34.485 48.0858 40.241 36.0405 42.1536 35.422C42.8524 35.1955 43.4232 35.5053 43.4232 36.1086C43.4232 38.8063 49.0868 49.3605 50.4143 49.135C53.5224 48.6079 52.4275 51.2701 48.7953 53.074C43.3714 55.7696 30.2119 55.7392 24.7312 53.0191C5.15746 43.3079 5.60234 15.7 25.4777 6.67542C33.4033 3.07677 47.287 4.50384 52.788 9.48182C53.7895 10.3878 54.8469 10.8916 55.1374 10.6001C55.9601 9.77739 48.9873 4.80957 43.7757 2.50391C38.363 0.109889 29.3882 -0.71385 23.8546 0.675638ZM37.2691 21.8176C39.2517 26.1171 38.7317 31.3642 35.8176 36.4854C31.508 44.0596 29.0631 39.9774 32.1062 30.2866C32.7918 28.1018 32.8253 26.0257 32.1997 24.3802C30.9128 20.9969 30.9737 20.6424 32.7258 21.3148C35.0792 22.2178 35.393 20.4779 33.2143 18.612C31.2317 16.9148 30.6659 14.7574 31.8848 13.5396C32.4973 12.9271 34.8121 16.4851 37.2691 21.8176ZM31.2347 28.5182C31.2347 30.4409 30.7777 32.2956 30.219 32.641C29.6055 33.0198 29.2033 31.6354 29.2033 29.1459C29.2033 26.8789 29.6604 25.0232 30.219 25.0232C30.7777 25.0232 31.2347 26.5955 31.2347 28.5182Z" fill="url(#paint0_linear_847_389)"/>
</g>
<defs>
<linearGradient id="paint0_linear_847_389" x1="-1.06664e-07" y1="7.10995" x2="28.0214" y2="60" gradientUnits="userSpaceOnUse">
<stop stop-color="#EB0029"/>
<stop offset="1" stop-color="#6B2AE6"/>
</linearGradient>
</defs>
</svg>
