<svg width="308" height="61" viewBox="0 0 308 61" fill="none" xmlns="http://www.w3.org/2000/svg">
<mask id="mask0_853_384" style="mask-type:alpha" maskUnits="userSpaceOnUse" x="0" y="0" width="62" height="60">
<path d="M31 60C48.1208 60 62 46.5685 62 30C62 13.4315 48.1208 0 31 0C13.8792 0 0 13.4315 0 30C0 46.5685 13.8792 60 31 60Z" fill="#D9D9D9"/>
</mask>
<g mask="url(#mask0_853_384)">
<path fill-rule="evenodd" clip-rule="evenodd" d="M23.8546 0.675638C6.78767 4.96294 -3.57864 22.2005 1.14236 38.4417C3.188 45.4775 10.1141 53.4965 17.413 57.279C21.81 59.5572 23.9186 59.9726 31.2347 59.9991C38.239 60.0234 40.7621 59.5877 44.6055 57.6914C49.4139 55.3176 58.6131 47.8908 55.3629 49.005C53.9551 49.4885 52.9902 48.2747 50.6693 43.1028C46.0742 32.8604 45.9838 32.2743 48.5729 29.5177C50.843 27.1013 50.847 27.0515 48.9223 24.7794C47.8537 23.5169 46.4216 22.1264 45.74 21.6896C44.9752 21.198 44.7325 19.7455 45.1052 17.8807C45.6232 15.2947 45.4018 14.8661 43.5502 14.8661C42.0906 14.8661 41.3918 15.505 41.3918 16.8376C41.3918 17.9223 40.95 19.0823 40.4106 19.4154C39.3045 20.099 33.2661 12.2618 33.2661 10.143C33.2661 9.38838 32.8091 8.77184 32.2504 8.77184C31.6918 8.77184 31.2347 9.57628 31.2347 10.5585C31.2347 11.5417 30.2922 12.9342 29.1403 13.6543C27.4157 14.731 27.1171 15.7579 27.4492 19.4703C27.7773 23.1411 27.6005 23.7688 26.4965 22.8526C25.4066 21.9476 25.1405 22.4798 25.1405 25.5645C25.1405 30.2612 21.0238 36.1807 17.7248 36.2284C15.542 36.2599 15.536 36.2945 17.4628 37.752C18.5475 38.5717 20.2041 39.2431 21.1447 39.2431C22.2477 39.2431 23.0806 40.3705 23.49 42.4172C24.3655 46.7969 24.333 47.0153 22.5291 48.8202C21.1305 50.2178 21.1234 50.4158 22.4692 50.4158C23.3132 50.4158 24.3746 49.845 24.8266 49.1462C25.6676 47.8471 25.7458 47.3352 26.0059 41.4045C26.1369 38.4163 26.3593 38.1471 27.7468 39.2989C29.2683 40.5615 32.2504 45.575 32.2504 46.87C32.2504 47.2103 31.7934 47.2062 31.2347 46.8609C30.6588 46.5044 30.219 47.3586 30.219 48.8324C30.219 51.7017 32.2291 52.5011 32.286 49.6541C32.3144 48.2686 32.6191 48.4108 33.6653 50.299C34.4037 51.6316 35.2712 52.2949 35.5941 51.7738C35.9161 51.2528 35.8267 50.2574 35.3971 49.5606C34.485 48.0858 40.241 36.0405 42.1536 35.422C42.8524 35.1955 43.4232 35.5053 43.4232 36.1086C43.4232 38.8063 49.0868 49.3605 50.4143 49.135C53.5224 48.6079 52.4275 51.2701 48.7953 53.074C43.3714 55.7696 30.2119 55.7392 24.7312 53.0191C5.15746 43.3079 5.60234 15.7 25.4777 6.67542C33.4033 3.07677 47.287 4.50384 52.788 9.48182C53.7895 10.3878 54.8469 10.8916 55.1374 10.6001C55.9601 9.77739 48.9873 4.80957 43.7757 2.50391C38.363 0.109889 29.3882 -0.71385 23.8546 0.675638ZM37.2691 21.8176C39.2517 26.1171 38.7317 31.3642 35.8176 36.4854C31.508 44.0596 29.0631 39.9774 32.1062 30.2866C32.7918 28.1018 32.8253 26.0257 32.1997 24.3802C30.9128 20.9969 30.9737 20.6424 32.7258 21.3148C35.0792 22.2178 35.393 20.4779 33.2143 18.612C31.2317 16.9148 30.6659 14.7574 31.8848 13.5396C32.4973 12.9271 34.8121 16.4851 37.2691 21.8176ZM31.2347 28.5182C31.2347 30.4409 30.7777 32.2956 30.219 32.641C29.6055 33.0198 29.2033 31.6354 29.2033 29.1459C29.2033 26.8789 29.6604 25.0232 30.219 25.0232C30.7777 25.0232 31.2347 26.5955 31.2347 28.5182Z" fill="url(#paint0_linear_853_384)"/>
</g>
<path d="M77.2 22.44C79.76 22.44 81.8133 23.2933 83.36 25C84.9067 26.68 85.68 29 85.68 31.96V45H78.88V32.88C78.88 31.3867 78.4933 30.2267 77.72 29.4C76.9467 28.5733 75.9067 28.16 74.6 28.16C73.2933 28.16 72.2533 28.5733 71.48 29.4C70.7067 30.2267 70.32 31.3867 70.32 32.88V45H63.48V15.4H70.32V25.68C71.0133 24.6933 71.96 23.9067 73.16 23.32C74.36 22.7333 75.7067 22.44 77.2 22.44ZM100.593 45.32C98.4065 45.32 96.4331 44.8533 94.6731 43.92C92.9398 42.9867 91.5665 41.6533 90.5531 39.92C89.5665 38.1867 89.0731 36.16 89.0731 33.84C89.0731 31.5467 89.5798 29.5333 90.5931 27.8C91.6065 26.04 92.9931 24.6933 94.7531 23.76C96.5131 22.8267 98.4865 22.36 100.673 22.36C102.86 22.36 104.833 22.8267 106.593 23.76C108.353 24.6933 109.74 26.04 110.753 27.8C111.766 29.5333 112.273 31.5467 112.273 33.84C112.273 36.1333 111.753 38.16 110.713 39.92C109.7 41.6533 108.3 42.9867 106.513 43.92C104.753 44.8533 102.78 45.32 100.593 45.32ZM100.593 39.4C101.9 39.4 103.006 38.92 103.913 37.96C104.846 37 105.313 35.6267 105.313 33.84C105.313 32.0533 104.86 30.68 103.953 29.72C103.073 28.76 101.98 28.28 100.673 28.28C99.3398 28.28 98.2331 28.76 97.3531 29.72C96.4731 30.6533 96.0331 32.0267 96.0331 33.84C96.0331 35.6267 96.4598 37 97.3131 37.96C98.1931 38.92 99.2865 39.4 100.593 39.4ZM114.542 33.84C114.542 31.52 115.009 29.4933 115.942 27.76C116.902 26.0267 118.222 24.6933 119.902 23.76C121.609 22.8267 123.555 22.36 125.742 22.36C128.542 22.36 130.875 23.0933 132.742 24.56C134.635 26.0267 135.875 28.0933 136.462 30.76H129.182C128.569 29.0533 127.382 28.2 125.622 28.2C124.369 28.2 123.369 28.6933 122.622 29.68C121.875 30.64 121.502 32.0267 121.502 33.84C121.502 35.6533 121.875 37.0533 122.622 38.04C123.369 39 124.369 39.48 125.622 39.48C127.382 39.48 128.569 38.6267 129.182 36.92H136.462C135.875 39.5333 134.635 41.5867 132.742 43.08C130.849 44.5733 128.515 45.32 125.742 45.32C123.555 45.32 121.609 44.8533 119.902 43.92C118.222 42.9867 116.902 41.6533 115.942 39.92C115.009 38.1867 114.542 36.16 114.542 33.84ZM153.721 22.44C156.334 22.44 158.414 23.2933 159.961 25C161.534 26.68 162.321 29 162.321 31.96V45H155.521V32.88C155.521 31.3867 155.134 30.2267 154.361 29.4C153.587 28.5733 152.547 28.16 151.241 28.16C149.934 28.16 148.894 28.5733 148.121 29.4C147.347 30.2267 146.961 31.3867 146.961 32.88V45H140.121V22.68H146.961V25.64C147.654 24.6533 148.587 23.88 149.761 23.32C150.934 22.7333 152.254 22.44 153.721 22.44ZM180.794 22.44C183.354 22.44 185.407 23.2933 186.954 25C188.5 26.68 189.274 29 189.274 31.96V45H182.474V32.88C182.474 31.3867 182.087 30.2267 181.314 29.4C180.54 28.5733 179.5 28.16 178.194 28.16C176.887 28.16 175.847 28.5733 175.074 29.4C174.3 30.2267 173.914 31.3867 173.914 32.88V45H167.074V15.4H173.914V25.68C174.607 24.6933 175.554 23.9067 176.754 23.32C177.954 22.7333 179.3 22.44 180.794 22.44ZM192.667 33.8C192.667 31.5067 193.094 29.4933 193.947 27.76C194.827 26.0267 196.014 24.6933 197.507 23.76C199 22.8267 200.667 22.36 202.507 22.36C204.08 22.36 205.454 22.68 206.627 23.32C207.827 23.96 208.747 24.8 209.387 25.84V22.68H216.227V45H209.387V41.84C208.72 42.88 207.787 43.72 206.587 44.36C205.414 45 204.04 45.32 202.467 45.32C200.654 45.32 199 44.8533 197.507 43.92C196.014 42.96 194.827 41.6133 193.947 39.88C193.094 38.12 192.667 36.0933 192.667 33.8ZM209.387 33.84C209.387 32.1333 208.907 30.7867 207.947 29.8C207.014 28.8133 205.867 28.32 204.507 28.32C203.147 28.32 201.987 28.8133 201.027 29.8C200.094 30.76 199.627 32.0933 199.627 33.8C199.627 35.5067 200.094 36.8667 201.027 37.88C201.987 38.8667 203.147 39.36 204.507 39.36C205.867 39.36 207.014 38.8667 207.947 37.88C208.907 36.8933 209.387 35.5467 209.387 33.84ZM243.975 22.68L229.975 55.6H222.615L227.735 44.24L218.655 22.68H226.295L231.455 36.64L236.575 22.68H243.975ZM249.649 45.32C248.449 45.32 247.462 44.9733 246.689 44.28C245.942 43.56 245.569 42.68 245.569 41.64C245.569 40.5733 245.942 39.68 246.689 38.96C247.462 38.24 248.449 37.88 249.649 37.88C250.822 37.88 251.782 38.24 252.529 38.96C253.302 39.68 253.689 40.5733 253.689 41.64C253.689 42.68 253.302 43.56 252.529 44.28C251.782 44.9733 250.822 45.32 249.649 45.32ZM267.778 38.6L272.618 22.68H279.898L271.978 45H263.538L255.618 22.68H262.938L267.778 38.6ZM296.377 22.44C298.99 22.44 301.07 23.2933 302.617 25C304.19 26.68 304.977 29 304.977 31.96V45H298.177V32.88C298.177 31.3867 297.79 30.2267 297.017 29.4C296.244 28.5733 295.204 28.16 293.897 28.16C292.59 28.16 291.55 28.5733 290.777 29.4C290.004 30.2267 289.617 31.3867 289.617 32.88V45H282.777V22.68H289.617V25.64C290.31 24.6533 291.244 23.88 292.417 23.32C293.59 22.7333 294.91 22.44 296.377 22.44Z" fill="white"/>
<defs>
<linearGradient id="paint0_linear_853_384" x1="-1.06664e-07" y1="7.10995" x2="28.0214" y2="60" gradientUnits="userSpaceOnUse">
<stop stop-color="#EB0029"/>
<stop offset="1" stop-color="#6B2AE6"/>
</linearGradient>
</defs>
</svg>
